<?xml version="1.0" encoding="utf-8"?>
<!-- Generator: Adobe Illustrator 16.0.0, SVG Export Plug-In . SVG Version: 6.00 Build 0)  -->
<!DOCTYPE svg PUBLIC "-//W3C//DTD SVG 1.1//EN" "http://www.w3.org/Graphics/SVG/1.1/DTD/svg11.dtd">
<svg version="1.1" id="Layer_1" xmlns="http://www.w3.org/2000/svg" xmlns:xlink="http://www.w3.org/1999/xlink" x="0px" y="0px"
	 width="575.003px" height="137.363px" viewBox="0 0 575.003 137.363" enable-background="new 0 0 575.003 137.363"
	 xml:space="preserve">
<g>
	<g>
		<path fill="#C1272D" d="M74,87.915H63.211l-8.82-23.317H19.138l-8.292,23.317H0L31.899,4.751h10.084L74,87.915z M51.21,55.839
			L38.161,20.411c-0.434-1.161-0.854-3.021-1.278-5.568h-0.228c-0.391,2.354-0.83,4.214-1.335,5.568L22.384,55.839H51.21z"/>
		<path fill="#C1272D" d="M99.22,87.915h-9.51V0h9.51V87.915z"/>
		<path fill="#C1272D" d="M153.609,58.567h-31.662v-7.485h31.662V58.567z"/>
		<path fill="#C1272D" d="M239.265,87.915h-9.745V49.982h-43.031v37.933h-9.736V4.751h9.736v36.477h43.031V4.751h9.745V87.915z"/>
		<path fill="#C1272D" d="M307.049,87.915h-9.505v-9.276h-0.242c-4.128,7.104-10.221,10.663-18.262,10.663
			c-5.917,0-10.548-1.558-13.888-4.691c-3.341-3.135-5.013-7.289-5.013-12.471c0-11.094,6.527-17.551,19.596-19.369l17.81-2.496
			c0-10.086-4.087-15.135-12.242-15.135c-7.155,0-13.605,2.436-19.368,7.306v-9.741c5.838-3.709,12.568-5.569,20.185-5.569
			c13.952,0,20.93,7.386,20.93,22.157V87.915z M297.544,57.873l-14.332,1.973c-4.404,0.623-7.731,1.712-9.972,3.276
			c-2.243,1.567-3.366,4.341-3.366,8.325c0,2.897,1.038,5.261,3.105,7.103c2.063,1.835,4.818,2.749,8.259,2.749
			c4.72,0,8.613-1.649,11.69-4.953c3.077-3.309,4.615-7.489,4.615-12.563V57.873z"/>
		<path fill="#C1272D" d="M326.119,85.771V75.56c5.177,3.823,10.885,5.737,17.103,5.737c8.357,0,12.535-2.787,12.535-8.342
			c0-1.591-0.364-2.94-1.081-4.039c-0.712-1.1-1.676-2.077-2.893-2.926c-1.228-0.845-2.652-1.614-4.294-2.29
			c-1.642-0.679-3.412-1.383-5.306-2.12c-2.633-1.038-4.937-2.094-6.932-3.162c-1.991-1.062-3.653-2.26-4.995-3.596
			c-1.326-1.325-2.335-2.844-3.012-4.548c-0.678-1.7-1.015-3.691-1.015-5.975c0-2.78,0.639-5.248,1.918-7.391
			c1.275-2.147,2.978-3.945,5.106-5.399c2.124-1.444,4.546-2.534,7.278-3.275c2.724-0.736,5.535-1.1,8.438-1.1
			c5.139,0,9.741,0.893,13.799,2.661v9.638c-4.37-2.87-9.399-4.295-15.084-4.295c-1.772,0-3.382,0.203-4.809,0.608
			c-1.428,0.411-2.656,0.982-3.686,1.713c-1.024,0.736-1.812,1.615-2.377,2.633c-0.554,1.03-0.837,2.158-0.837,3.39
			c0,1.553,0.283,2.845,0.837,3.894c0.565,1.042,1.385,1.973,2.472,2.779c1.077,0.812,2.392,1.547,3.936,2.203
			c1.555,0.661,3.308,1.379,5.282,2.148c2.624,1.01,4.993,2.048,7.073,3.1c2.086,1.067,3.869,2.261,5.334,3.602
			c1.468,1.335,2.604,2.868,3.402,4.61c0.782,1.736,1.181,3.809,1.181,6.206c0,2.931-0.648,5.488-1.942,7.65
			c-1.292,2.158-3.024,3.963-5.189,5.387c-2.161,1.443-4.653,2.502-7.481,3.2c-2.821,0.698-5.776,1.038-8.876,1.038
			C335.902,89.301,330.603,88.121,326.119,85.771z"/>
		<path fill="#C1272D" d="M434.154,87.915h-9.509V53.7c0-12.374-4.597-18.561-13.805-18.561c-4.644,0-8.547,1.785-11.714,5.361
			c-3.17,3.583-4.757,8.17-4.757,13.776v33.638h-9.509V0h9.509v38.386h0.23c4.559-7.503,11.058-11.25,19.482-11.25
			c13.38,0,20.071,8.06,20.071,24.182V87.915z"/>
		<path fill="#C1272D" d="M541.14,87.915h-9.503v-34.1c0-6.569-1.019-11.327-3.054-14.267c-2.025-2.94-5.438-4.408-10.227-4.408
			c-4.069,0-7.514,1.86-10.354,5.569c-2.841,3.705-4.264,8.155-4.264,13.336v33.87h-9.509V52.658
			c0-11.686-4.506-17.519-13.517-17.519c-4.177,0-7.611,1.751-10.315,5.249c-2.713,3.496-4.063,8.055-4.063,13.657v33.87h-9.509
			V28.528h9.509v9.401h0.227c4.219-7.202,10.368-10.793,18.443-10.793c4.062,0,7.599,1.134,10.618,3.393
			c3.011,2.265,5.078,5.233,6.202,8.906c4.405-8.199,10.982-12.299,19.723-12.299c13.063,0,19.592,8.06,19.592,24.182V87.915z"/>
		<path fill="#C1272D" d="M568.744,13.45c-1.705,0-3.153-0.58-4.35-1.741c-1.199-1.156-1.801-2.629-1.801-4.403
			c0-1.781,0.602-3.257,1.801-4.437c1.196-1.185,2.645-1.769,4.35-1.769c1.737,0,3.219,0.584,4.43,1.769
			c1.221,1.18,1.829,2.656,1.829,4.437c0,1.699-0.608,3.147-1.829,4.346C571.963,12.85,570.481,13.45,568.744,13.45z
			 M573.384,87.915h-9.511V28.528h9.511V87.915z"/>
	</g>
	<g>
		<path d="M21.359,128.005l-3.139-8.425H6l-3.06,8.425H0l10.848-28.497h2.664l10.789,28.497H21.359z M12.675,104.495
			c-0.09-0.249-0.188-0.542-0.285-0.873c-0.1-0.332-0.183-0.708-0.251-1.132h-0.078c-0.081,0.424-0.168,0.8-0.269,1.132
			c-0.098,0.331-0.195,0.624-0.288,0.873l-4.609,12.68h10.432L12.675,104.495z"/>
		<path d="M44.755,124.727v12.636h-2.544v-29.707h2.544v3.894h0.081c0.754-1.415,1.764-2.498,3.027-3.244
			c1.266-0.752,2.695-1.127,4.284-1.127c1.298,0,2.461,0.238,3.485,0.706c1.027,0.474,1.896,1.137,2.605,1.996
			c0.708,0.863,1.249,1.907,1.629,3.142c0.378,1.23,0.566,2.616,0.566,4.152c0,1.684-0.212,3.215-0.637,4.601
			c-0.424,1.385-1.032,2.57-1.827,3.566c-0.798,0.995-1.759,1.767-2.891,2.313c-1.134,0.551-2.411,0.828-3.828,0.828
			c-2.861,0-5-1.253-6.416-3.756H44.755z M44.755,119.536c0,0.933,0.156,1.8,0.466,2.615c0.312,0.814,0.746,1.531,1.303,2.146
			c0.556,0.615,1.227,1.103,2.017,1.458c0.788,0.361,1.656,0.537,2.613,0.537c1.02,0,1.939-0.215,2.761-0.644
			c0.822-0.43,1.52-1.045,2.096-1.84c0.578-0.79,1.02-1.751,1.332-2.878c0.31-1.128,0.466-2.386,0.466-3.776
			c0-1.195-0.144-2.269-0.437-3.23c-0.29-0.961-0.705-1.779-1.242-2.453c-0.537-0.679-1.186-1.191-1.947-1.552
			c-0.761-0.355-1.615-0.537-2.554-0.537c-1.059,0-2.015,0.195-2.862,0.591c-0.849,0.391-1.568,0.923-2.164,1.596
			c-0.598,0.678-1.056,1.468-1.371,2.376c-0.32,0.907-0.479,1.873-0.479,2.894V119.536z"/>
		<path d="M81.939,124.727v12.636h-2.542v-29.707h2.542v3.894h0.081c0.753-1.415,1.766-2.498,3.029-3.244
			c1.266-0.752,2.693-1.127,4.281-1.127c1.298,0,2.462,0.238,3.486,0.706c1.029,0.474,1.896,1.137,2.605,1.996
			c0.709,0.863,1.251,1.907,1.629,3.142c0.378,1.23,0.565,2.616,0.565,4.152c0,1.684-0.212,3.215-0.637,4.601
			c-0.424,1.385-1.032,2.57-1.827,3.566c-0.795,0.995-1.759,1.767-2.891,2.313c-1.131,0.551-2.41,0.828-3.825,0.828
			c-2.864,0-5-1.253-6.417-3.756H81.939z M81.939,119.536c0,0.933,0.156,1.8,0.465,2.615c0.312,0.814,0.747,1.531,1.303,2.146
			c0.559,0.615,1.227,1.103,2.017,1.458c0.789,0.361,1.657,0.537,2.613,0.537c1.02,0,1.939-0.215,2.764-0.644
			c0.82-0.43,1.517-1.045,2.095-1.84c0.576-0.79,1.017-1.751,1.33-2.878c0.312-1.128,0.466-2.386,0.466-3.776
			c0-1.195-0.144-2.269-0.437-3.23c-0.291-0.961-0.705-1.779-1.242-2.453c-0.537-0.679-1.183-1.191-1.944-1.552
			c-0.763-0.355-1.615-0.537-2.554-0.537c-1.061,0-2.015,0.195-2.864,0.591c-0.847,0.391-1.569,0.923-2.164,1.596
			c-0.595,0.678-1.054,1.468-1.371,2.376c-0.319,0.907-0.478,1.873-0.478,2.894V119.536z"/>
		<path d="M160.441,128.005l-3.14-8.425h-12.221l-3.06,8.425h-2.941l10.85-28.497h2.664l10.789,28.497H160.441z M151.759,104.495
			c-0.095-0.249-0.193-0.542-0.291-0.873c-0.1-0.332-0.183-0.708-0.246-1.132h-0.081c-0.078,0.424-0.17,0.8-0.269,1.132
			c-0.1,0.331-0.198,0.624-0.288,0.873l-4.61,12.68h10.431L151.759,104.495z"/>
		<path d="M195.558,128.005v-3.576h-0.077c-0.676,1.283-1.639,2.278-2.894,2.985c-1.251,0.708-2.671,1.068-4.261,1.068
			c-1.271,0-2.428-0.238-3.467-0.707c-1.041-0.474-1.933-1.151-2.674-2.039c-0.742-0.884-1.315-1.957-1.718-3.22
			c-0.404-1.259-0.607-2.679-0.607-4.27c0-1.645,0.225-3.146,0.667-4.503c0.44-1.356,1.073-2.522,1.888-3.493
			c0.813-0.976,1.795-1.732,2.939-2.269c1.146-0.537,2.42-0.805,3.827-0.805c2.928,0,5.027,1.171,6.299,3.518h0.077V97.878h2.543
			v30.127H195.558z M195.558,115.72c0-0.888-0.15-1.712-0.455-2.483c-0.308-0.766-0.73-1.435-1.271-2.004
			c-0.546-0.571-1.197-1.021-1.959-1.353c-0.763-0.331-1.6-0.498-2.514-0.498c-1.006,0-1.936,0.2-2.781,0.601
			c-0.849,0.396-1.573,0.966-2.177,1.718c-0.6,0.746-1.073,1.658-1.41,2.731c-0.339,1.073-0.504,2.294-0.504,3.654
			c0,1.288,0.148,2.439,0.455,3.459c0.304,1.021,0.736,1.884,1.301,2.581c0.563,0.702,1.237,1.239,2.017,1.61
			c0.781,0.375,1.649,0.556,2.604,0.556c1.032,0,1.964-0.181,2.794-0.556c0.826-0.371,1.528-0.878,2.104-1.526
			c0.576-0.649,1.021-1.416,1.33-2.289c0.313-0.873,0.468-1.805,0.468-2.8V115.72z"/>
		<path d="M244.068,128.005v-11.963c0-1.22-0.09-2.249-0.275-3.094c-0.186-0.839-0.476-1.521-0.867-2.053
			c-0.39-0.532-0.885-0.913-1.489-1.152c-0.603-0.239-1.322-0.361-2.157-0.361c-0.738,0-1.444,0.176-2.105,0.528
			c-0.663,0.351-1.241,0.833-1.738,1.448c-0.496,0.619-0.888,1.342-1.172,2.181c-0.285,0.834-0.427,1.731-0.427,2.703v11.763h-2.544
			v-12.222c0-4.269-1.637-6.401-4.907-6.401c-0.755,0-1.457,0.171-2.108,0.508c-0.648,0.337-1.214,0.814-1.697,1.42
			c-0.486,0.61-0.861,1.341-1.135,2.195c-0.271,0.859-0.405,1.801-0.405,2.835v11.665h-2.544v-20.35h2.544v3.298h0.079
			c1.431-2.517,3.518-3.775,6.259-3.775c0.715,0,1.391,0.112,2.027,0.326c0.637,0.22,1.204,0.527,1.71,0.917
			c0.502,0.392,0.935,0.859,1.3,1.401c0.363,0.541,0.639,1.137,0.827,1.79c0.712-1.444,1.645-2.547,2.788-3.304
			c1.147-0.751,2.441-1.131,3.886-1.131c4.465,0,6.696,2.757,6.696,8.269v12.559H244.068z"/>
		<path d="M267.818,102.509c-0.49,0-0.915-0.171-1.271-0.518c-0.359-0.341-0.537-0.78-0.537-1.313c0-0.512,0.178-0.942,0.537-1.278
			c0.356-0.342,0.781-0.507,1.271-0.507c0.251,0,0.489,0.043,0.718,0.131c0.224,0.083,0.416,0.205,0.582,0.366
			c0.166,0.156,0.298,0.346,0.397,0.566c0.1,0.214,0.151,0.458,0.151,0.722c0,0.254-0.046,0.492-0.142,0.717
			c-0.093,0.225-0.225,0.425-0.396,0.586c-0.173,0.166-0.367,0.297-0.588,0.391C268.326,102.46,268.083,102.509,267.818,102.509z
			 M266.564,128.005v-20.35h2.544v20.35H266.564z"/>
		<path d="M303.235,128.005v-11.724c0-4.601-1.668-6.899-5.01-6.899c-0.888,0-1.708,0.176-2.461,0.528
			c-0.757,0.351-1.41,0.839-1.959,1.463c-0.549,0.62-0.979,1.361-1.291,2.215c-0.313,0.854-0.466,1.776-0.466,2.771v11.646h-2.545
			v-20.35h2.545v3.537h0.077c1.511-2.674,3.781-4.015,6.816-4.015c2.225,0,3.923,0.722,5.086,2.165
			c1.166,1.444,1.749,3.532,1.749,6.261v12.401H303.235z"/>
	</g>
</g>
</svg>
